<svg width="24" height="24" viewBox="0 0 24 24" fill="none" xmlns="http://www.w3.org/2000/svg">
<path d="M16 7.99999V13C16 13.7956 16.3161 14.5587 16.8787 15.1213C17.4413 15.6839 18.2044 16 19 16C19.7957 16 20.5587 15.6839 21.1213 15.1213C21.6839 14.5587 22 13.7956 22 13V12C22 9.7473 21.2394 7.56059 19.8414 5.79416C18.4434 4.02773 16.49 2.78507 14.2975 2.2675C12.1051 1.74994 9.80215 1.9878 7.76178 2.94254C5.72141 3.89729 4.06318 5.51299 3.05574 7.52786C2.0483 9.54273 1.75069 11.8387 2.21111 14.0439C2.67154 16.249 3.86303 18.2341 5.59254 19.6775C7.32205 21.1209 9.48825 21.9381 11.7402 21.9966C13.9921 22.0551 16.1979 21.3516 18 20M16 12C16 14.2091 14.2092 16 12 16C9.79087 16 8.00001 14.2091 8.00001 12C8.00001 9.79085 9.79087 7.99999 12 7.99999C14.2092 7.99999 16 9.79085 16 12Z" stroke="black" stroke-width="2" stroke-linecap="round" stroke-linejoin="round"/>
</svg>
