<svg width="24" height="24" viewBox="0 0 24 24" fill="none" xmlns="http://www.w3.org/2000/svg">
<path d="M5.34103 10.62C5.60467 11.2133 6.00875 11.7335 6.51839 12.1356C7.02803 12.5378 7.6279 12.8099 8.26621 12.9284C8.90452 13.0469 9.56209 13.0083 10.1821 12.8158C10.8022 12.6234 11.366 12.2829 11.8251 11.8238C12.2841 11.3647 12.6245 10.8007 12.8168 10.1807C13.0091 9.5606 13.0476 8.90303 12.929 8.26474C12.8104 7.62646 12.5382 7.02664 12.1359 6.51707C11.7336 6.00751 11.2134 5.60353 10.62 5.34M10.165 6.598C9.95403 7.478 9.64003 8.36 9.00003 9C8.36003 9.64 7.47903 9.954 6.59803 10.165C5.16859 10.5073 3.91453 11.3625 3.07381 12.5681C2.23309 13.7738 1.86418 15.2462 2.0371 16.7058C2.21001 18.1655 2.91271 19.5109 4.01187 20.4868C5.11103 21.4627 6.53017 22.0011 8.00003 22C15.732 22 22 15.732 22 8C22.0012 6.53014 21.4627 5.111 20.4868 4.01184C19.5109 2.91268 18.1655 2.20998 16.7059 2.03707C15.2462 1.86415 13.7739 2.23306 12.5682 3.07378C11.3625 3.9145 10.5074 5.16856 10.165 6.598Z" stroke="black" stroke-width="2" stroke-linecap="round" stroke-linejoin="round"/>
</svg>
