<svg width="24" height="24" viewBox="0 0 24 24" fill="none" xmlns="http://www.w3.org/2000/svg">
<path d="M12 13.9C13.1046 13.9 14 13.0046 14 11.9C14 10.7954 13.1046 9.9 12 9.9C10.8954 9.9 10 10.7954 10 11.9C10 13.0046 10.8954 13.9 12 13.9ZM12 13.9V15.5M6.7 3.4C5.8 5.9 6.7 8.6 8.9 10.1M8.9 10.1C6.5 9 3.7 9.6 2 11.6M8.9 10.1L10.3 10.9M17.3 3.4C18.2 5.9 17.3 8.6 15.1 10.1M15.1 10.1C17.5 8.9 20.3 9.5 22 11.6M15.1 10.1L13.7 10.9M16.7 20.8C14.1 20.4 12.1 18.2 12 15.5M12 15.5C11.8 18.1 9.9 20.3 7.3 20.7M13.5 5.4C12.5 5.2 11.5 5.2 10.5 5.4M17 16.4C17.7 15.7 18.2 14.8 18.5 13.9M5.5 13.9C5.8 14.8 6.3 15.7 7 16.4" stroke="black" stroke-width="2" stroke-linecap="round" stroke-linejoin="round"/>
</svg>
