<svg width="24" height="24" viewBox="0 0 24 24" fill="none" xmlns="http://www.w3.org/2000/svg">
<path d="M16 7H16.01M3.4 18H12C14.1217 18 16.1566 17.1571 17.6569 15.6569C19.1571 14.1566 20 12.1217 20 10V7M20 7C20.0023 6.14791 19.7323 5.31737 19.2296 4.62939C18.7269 3.94141 18.0175 3.43196 17.205 3.17526C16.3925 2.91856 15.5193 2.92803 14.7125 3.2023C13.9058 3.47656 13.2077 4.00128 12.72 4.7L2 20M20 7L22 7.5L20 8M10 18V21M14 17.75V21M7 18C8.23312 17.9999 9.43627 17.6199 10.4457 16.9117C11.4552 16.2035 12.2219 15.2014 12.6416 14.0419C13.0612 12.8824 13.1134 11.6217 12.7911 10.4315C12.4687 9.24127 11.7874 8.17926 10.84 7.39" stroke="black" stroke-width="2" stroke-linecap="round" stroke-linejoin="round"/>
</svg>
