<svg width="24" height="24" viewBox="0 0 24 24" fill="none" xmlns="http://www.w3.org/2000/svg">
<path d="M14.35 4.65L16.3 2.7C16.7516 2.25056 17.3628 1.99825 18 1.99825C18.6372 1.99825 19.2484 2.25056 19.7 2.7L21.3 4.3C21.5237 4.52297 21.7013 4.78791 21.8224 5.07964C21.9435 5.37136 22.0059 5.68413 22.0059 6C22.0059 6.31587 21.9435 6.62864 21.8224 6.92037C21.7013 7.21209 21.5237 7.47703 21.3 7.7L19.35 9.65M22 2L20.5 3.5M20 13C20 17.9706 15.9706 22 11 22C6.02944 22 2 17.9706 2 13C2 8.02944 6.02944 4 11 4C15.9706 4 20 8.02944 20 13Z" stroke="black" stroke-width="2" stroke-linecap="round" stroke-linejoin="round"/>
</svg>
