<svg width="24" height="24" viewBox="0 0 24 24" fill="none" xmlns="http://www.w3.org/2000/svg">
<path d="M12 5C12.0012 4.60003 11.9224 4.20386 11.7682 3.8348C11.614 3.46574 11.3876 3.13123 11.1023 2.85095C10.8169 2.57067 10.4784 2.35027 10.1067 2.20273C9.73489 2.05519 9.33738 1.98348 8.9375 1.99181C8.53761 2.00015 8.14343 2.08836 7.77814 2.25127C7.41285 2.41417 7.08382 2.64848 6.8104 2.94041C6.53699 3.23233 6.32471 3.57599 6.18605 3.95115C6.04739 4.32632 5.98516 4.72543 6.003 5.125M12 5V18M12 5C11.9988 4.60003 12.0776 4.20386 12.2318 3.8348C12.386 3.46574 12.6124 3.13123 12.8977 2.85095C13.1831 2.57067 13.5216 2.35027 13.8933 2.20273C14.2651 2.05519 14.6626 1.98348 15.0625 1.99181C15.4624 2.00015 15.8566 2.08836 16.2219 2.25127C16.5872 2.41417 16.9162 2.64848 17.1896 2.94041C17.463 3.23233 17.6753 3.57599 17.8139 3.95115C17.9526 4.32632 18.0148 4.72543 17.997 5.125M6.003 5.125C5.4152 5.27614 4.8695 5.55905 4.40723 5.95231C3.94496 6.34557 3.57824 6.83887 3.33484 7.39485C3.09145 7.95082 2.97776 8.5549 3.00239 9.16131C3.02702 9.76773 3.18932 10.3606 3.477 10.895M6.003 5.125C6.02277 5.60873 6.15933 6.0805 6.401 6.5M3.477 10.895C2.97118 11.3059 2.57343 11.8342 2.31834 12.4339C2.06325 13.0336 1.95856 13.6866 2.01336 14.336C2.06817 14.9854 2.28082 15.6116 2.63281 16.16C2.98479 16.7085 3.46546 17.1627 4.033 17.483M3.477 10.895C3.65994 10.746 3.8557 10.6145 4.062 10.5M4.033 17.483C3.96292 18.0252 4.00474 18.5761 4.15589 19.1015C4.30703 19.627 4.5643 20.1158 4.91178 20.538C5.25927 20.9601 5.68961 21.3065 6.17622 21.5558C6.66283 21.805 7.19538 21.9519 7.74098 21.9873C8.28658 22.0227 8.83364 21.9459 9.34839 21.7616C9.86313 21.5773 10.3346 21.2894 10.7338 20.9158C11.1329 20.5421 11.4512 20.0906 11.669 19.5891C11.8868 19.0876 11.9994 18.5467 12 18M4.033 17.483C4.63327 17.8216 5.31083 18.0003 6 18M12 18C12.0006 18.5467 12.1132 19.0876 12.331 19.5891C12.5488 20.0906 12.8671 20.5421 13.2662 20.9158C13.6654 21.2894 14.1369 21.5773 14.6516 21.7616C15.1664 21.9459 15.7134 22.0227 16.259 21.9873C16.8046 21.9519 17.3372 21.805 17.8238 21.5558C18.3104 21.3065 18.7407 20.9601 19.0882 20.538C19.4357 20.1158 19.693 19.627 19.8441 19.1015C19.9953 18.5761 20.0371 18.0252 19.967 17.483M17.997 5.125C18.5848 5.27614 19.1305 5.55905 19.5928 5.95231C20.055 6.34557 20.4218 6.83887 20.6652 7.39485C20.9086 7.95082 21.0222 8.5549 20.9976 9.16131C20.973 9.76773 20.8107 10.3606 20.523 10.895M17.997 5.125C17.9769 5.60882 17.841 6.08059 17.599 6.5M20.523 10.895C21.0288 11.3059 21.4266 11.8342 21.6817 12.4339C21.9367 13.0336 22.0414 13.6866 21.9866 14.336C21.9318 14.9854 21.7192 15.6116 21.3672 16.16C21.0152 16.7085 20.5345 17.1627 19.967 17.483M20.523 10.895C20.3401 10.746 20.1443 10.6145 19.938 10.5M19.967 17.483C19.3667 17.8216 18.6892 18.0003 18 18M15 13C14.1604 12.7047 13.4273 12.167 12.8933 11.455C12.3593 10.743 12.0485 9.88867 12 9C11.9515 9.88867 11.6407 10.743 11.1067 11.455C10.5727 12.167 9.83956 12.7047 9 13" stroke="black" stroke-width="2" stroke-linecap="round" stroke-linejoin="round"/>
</svg>
