<svg width="24" height="24" viewBox="0 0 24 24" fill="none" xmlns="http://www.w3.org/2000/svg">
<g clip-path="url(#clip0_5_2107)">
<path d="M17.75 7L15 2.1M10.9 4.8L13 9M7.9 9.7L9.9 14.1M4.9 14.7L7 18.9M5.7 21C5.56868 21.2298 5.39338 21.4315 5.18411 21.5936C4.97484 21.7556 4.73569 21.8749 4.48033 21.9445C3.96461 22.0852 3.41413 22.0152 2.95 21.75C2.48587 21.4848 2.14611 21.0461 2.00546 20.5303C1.86481 20.0146 1.93479 19.4641 2.2 19L10.8 5C11.5957 3.62087 12.9066 2.6143 14.4444 2.20172C15.9822 1.78914 17.6209 2.00435 19 2.8C20.3791 3.59565 21.3857 4.90657 21.7983 6.44437C22.2109 7.98216 21.9957 9.62087 21.2 11C21.0696 11.2293 20.8952 11.4305 20.6868 11.5921C20.4783 11.7537 20.2399 11.8725 19.9854 11.9416C19.7308 12.0107 19.4651 12.0288 19.2036 11.9948C18.942 11.9608 18.6898 11.8754 18.4613 11.7435C18.2329 11.6116 18.0328 11.4359 17.8726 11.2264C17.7124 11.0168 17.5952 10.7777 17.5278 10.5227C17.4604 10.2677 17.4441 10.0019 17.4798 9.74055C17.5155 9.47922 17.6026 9.22754 17.736 9C17.8694 8.77246 17.9565 8.52078 17.9922 8.25945C18.0279 7.99812 18.0116 7.73231 17.9442 7.47731C17.8768 7.22231 17.7596 6.98316 17.5994 6.77364C17.4392 6.56412 17.2391 6.38836 17.0107 6.25647C16.7822 6.12459 16.53 6.03919 16.2684 6.00519C16.0069 5.9712 15.7412 5.98927 15.4866 6.05838C15.2321 6.12749 14.9937 6.24626 14.7853 6.40787C14.5768 6.56947 14.4024 6.77071 14.272 7L5.7 21Z" stroke="black" stroke-width="2" stroke-linecap="round" stroke-linejoin="round"/>
</g>
<defs>
<clipPath id="clip0_5_2107">
<rect width="24" height="24" fill="white"/>
</clipPath>
</defs>
</svg>
