<svg width="24" height="24" viewBox="0 0 24 24" fill="none" xmlns="http://www.w3.org/2000/svg">
<path d="M8 14V14.5M16 14V14.5M12 5C12.67 5 13.35 5.09 14 5.26C15.78 3.26 19.03 2.42 20.42 3C21.82 3.58 20 10 20 10C20.57 11.07 21 12.24 21 13.44C21 17.9 16.97 21 12 21C7.03 21 3 18 3 13.44C3 12.19 3.5 11.04 4 10C4 10 2.11 3.58 3.5 3C4.89 2.42 8.22 3.23 10 5.23C10.656 5.07911 11.3268 5.00196 12 5ZM11.25 16.25H12.75L12 17L11.25 16.25Z" stroke="black" stroke-width="2" stroke-linecap="round" stroke-linejoin="round"/>
</svg>
