<svg width="24" height="24" viewBox="0 0 24 24" fill="none" xmlns="http://www.w3.org/2000/svg">
<path d="M21.21 15.89C20.5738 17.3945 19.5788 18.7202 18.3119 19.7513C17.045 20.7824 15.5448 21.4874 13.9424 21.8048C12.3401 22.1221 10.6844 22.0421 9.12015 21.5718C7.55587 21.1015 6.13062 20.2551 4.96902 19.1067C3.80741 17.9582 2.94481 16.5428 2.45663 14.984C1.96845 13.4251 1.86956 11.7705 2.1686 10.1646C2.46763 8.55878 3.15549 7.05063 4.17204 5.77203C5.18859 4.49343 6.50288 3.48332 8 2.83M21 12C21.552 12 22.005 11.551 21.95 11.002C21.7195 8.70617 20.7021 6.56071 19.0703 4.92933C17.4386 3.29795 15.2929 2.28104 12.997 2.051C12.447 1.996 11.999 2.449 11.999 3.001V11.001C11.999 11.2662 12.1044 11.5206 12.2919 11.7081C12.4794 11.8956 12.7338 12.001 12.999 12.001L21 12Z" stroke="black" stroke-width="2" stroke-linecap="round" stroke-linejoin="round"/>
</svg>
