<svg width="24" height="24" viewBox="0 0 24 24" fill="none" xmlns="http://www.w3.org/2000/svg">
<path d="M6.00001 17H18M17 21C17.2652 21 17.5196 20.8946 17.7071 20.7071C17.8946 20.5196 18 20.2652 18 20V14.65C18 14.193 18.316 13.806 18.727 13.609C19.578 13.203 20.2582 12.5095 20.6476 11.6509C21.0371 10.7922 21.1107 9.8236 20.8554 8.91596C20.6002 8.00831 20.0326 7.22 19.2527 6.69014C18.4728 6.16028 17.5308 5.92294 16.593 6.02C16.2068 5.12221 15.5659 4.35729 14.7496 3.81984C13.9333 3.28238 12.9774 2.99594 12 2.99594C11.0227 2.99594 10.0667 3.28238 9.25043 3.81984C8.43413 4.35729 7.79324 5.12221 7.40701 6.02C6.46959 5.92362 5.52824 6.1613 4.74894 6.69114C3.96964 7.22097 3.40242 8.00893 3.14729 8.9161C2.89217 9.82327 2.96552 10.7914 3.35441 11.6497C3.7433 12.5081 4.42277 13.2016 5.27301 13.608C5.68401 13.806 6.00001 14.193 6.00001 14.649V20C6.00001 20.2652 6.10536 20.5196 6.2929 20.7071C6.48044 20.8946 6.73479 21 7.00001 21H17Z" stroke="black" stroke-width="2" stroke-linecap="round" stroke-linejoin="round"/>
</svg>
