<svg width="24" height="24" viewBox="0 0 24 24" fill="none" xmlns="http://www.w3.org/2000/svg">
<g clip-path="url(#clip0_5_2723)">
<path d="M10.1 2.18C11.3549 1.93538 12.6451 1.93538 13.9 2.18M17.6 3.71C18.6623 4.42826 19.5757 5.34507 20.29 6.41M21.82 10.1C22.0646 11.3549 22.0646 12.6451 21.82 13.9M20.29 17.6C19.5717 18.6623 18.6549 19.5757 17.59 20.29M13.9 21.82C12.6451 22.0644 11.3549 22.0644 10.1 21.82M6.4 20.29C5.33773 19.5717 4.42431 18.6549 3.71 17.59M2.18 13.9C1.93538 12.6451 1.93538 11.3549 2.18 10.1M3.71 6.4C4.42826 5.33773 5.34507 4.42431 6.41 3.71M13 12C13 12.5523 12.5523 13 12 13C11.4477 13 11 12.5523 11 12C11 11.4477 11.4477 11 12 11C12.5523 11 13 11.4477 13 12Z" stroke="black" stroke-width="2" stroke-linecap="round" stroke-linejoin="round"/>
</g>
<defs>
<clipPath id="clip0_5_2723">
<rect width="24" height="24" fill="white"/>
</clipPath>
</defs>
</svg>
