<svg width="24" height="24" viewBox="0 0 24 24" fill="none" xmlns="http://www.w3.org/2000/svg">
<path d="M3.99997 14.899C3.25701 14.1399 2.69654 13.2217 2.36101 12.2139C2.02547 11.2062 1.92368 10.1352 2.06333 9.08229C2.20299 8.02935 2.58043 7.02199 3.16707 6.13652C3.75371 5.25106 4.53416 4.5107 5.44931 3.97154C6.36445 3.43238 7.3903 3.10854 8.44914 3.02457C9.50798 2.94059 10.572 3.09868 11.5607 3.48685C12.5494 3.87502 13.4368 4.4831 14.1557 5.26503C14.8746 6.04695 15.4061 6.98222 15.71 7.99999H17.5C18.4655 7.99988 19.4054 8.31031 20.181 8.88543C20.9565 9.46055 21.5265 10.2699 21.8067 11.1938C22.087 12.1177 22.0627 13.1073 21.7373 14.0164C21.412 14.9254 20.8028 15.7057 20 16.242M9.19997 22L12.2 15M8.99997 13L5.99997 20M17 13L14 20" stroke="black" stroke-width="2" stroke-linecap="round" stroke-linejoin="round"/>
</svg>
