<svg width="24" height="24" viewBox="0 0 24 24" fill="none" xmlns="http://www.w3.org/2000/svg">
<path d="M3.99999 22H18C18.5304 22 19.0391 21.7893 19.4142 21.4142C19.7893 21.0391 20 20.5304 20 20V7L15 2H5.99999C5.46956 2 4.96085 2.21071 4.58578 2.58579C4.21071 2.96086 3.99999 3.46957 3.99999 4V6M14 2V6C14 6.53043 14.2107 7.03914 14.5858 7.41421C14.9609 7.78929 15.4696 8 16 8H20M10.29 10.7C9.94841 10.3589 9.51297 10.1273 9.03923 10.0347C8.56548 9.94209 8.07488 9.99267 7.62999 10.18C7.33999 10.3 7.06999 10.48 6.84999 10.71L6.49999 11.05L6.14999 10.71C5.81036 10.3693 5.37723 10.137 4.90547 10.0426C4.43371 9.94828 3.94456 9.99609 3.49999 10.18C3.19999 10.3 2.93999 10.48 2.70999 10.71C1.75999 11.65 1.70999 13.24 2.90999 14.45L6.49999 18L10.1 14.45C11.3 13.24 11.24 11.65 10.29 10.71V10.7Z" stroke="black" stroke-width="2" stroke-linecap="round" stroke-linejoin="round"/>
</svg>
