<svg width="24" height="24" viewBox="0 0 24 24" fill="none" xmlns="http://www.w3.org/2000/svg">
<path d="M14 2V6C14 6.53043 14.2107 7.03914 14.5858 7.41421C14.9608 7.78929 15.4696 8 16 8H20M3.19999 12.9L2.29999 12.5M3.19999 15.1L2.29999 15.5M4.67699 21.5C5.03979 21.82 5.50626 21.9976 5.98999 22H18C18.5304 22 19.0391 21.7893 19.4142 21.4142C19.7893 21.0391 20 20.5304 20 20V7L15 2H5.99999C5.46955 2 4.96085 2.21071 4.58577 2.58579C4.2107 2.96086 3.99999 3.46957 3.99999 4V6.5M4.89999 11.2L4.49999 10.3M4.89999 16.8L4.49999 17.7M7.49999 10.3L7.09999 11.2M7.49999 17.7L7.09999 16.8M9.69999 12.5L8.79999 12.9M9.69999 15.5L8.79999 15.1M8.99999 14C8.99999 15.6569 7.65684 17 5.99999 17C4.34313 17 2.99999 15.6569 2.99999 14C2.99999 12.3431 4.34313 11 5.99999 11C7.65684 11 8.99999 12.3431 8.99999 14Z" stroke="black" stroke-width="2" stroke-linecap="round" stroke-linejoin="round"/>
</svg>
