<svg width="24" height="24" viewBox="0 0 24 24" fill="none" xmlns="http://www.w3.org/2000/svg">
<path d="M10 20H4C3.46957 20 2.96086 19.7893 2.58579 19.4142C2.21071 19.0391 2 18.5304 2 18V4.99997C2 4.46954 2.21071 3.96083 2.58579 3.58576C2.96086 3.21069 3.46957 2.99997 4 2.99997H7.9C8.23449 2.99669 8.56445 3.07736 8.8597 3.23459C9.15495 3.39183 9.40604 3.6206 9.59 3.89997L10.4 5.09997C10.5821 5.3765 10.83 5.60349 11.1215 5.76058C11.413 5.91766 11.7389 5.99992 12.07 5.99997H20C20.5304 5.99997 21.0391 6.21069 21.4142 6.58576C21.7893 6.96083 22 7.46954 22 7.99997V10.5M20 17V15C20 14.4695 19.7893 13.9608 19.4142 13.5858C19.0391 13.2107 18.5304 13 18 13C17.4696 13 16.9609 13.2107 16.5858 13.5858C16.2107 13.9608 16 14.4695 16 15V17M15 17H21C21.5523 17 22 17.4477 22 18V21C22 21.5523 21.5523 22 21 22H15C14.4477 22 14 21.5523 14 21V18C14 17.4477 14.4477 17 15 17Z" stroke="black" stroke-width="2" stroke-linecap="round" stroke-linejoin="round"/>
</svg>
