<svg width="24" height="24" viewBox="0 0 24 24" fill="none" xmlns="http://www.w3.org/2000/svg">
<path d="M9 20H4C3.46957 20 2.96086 19.7893 2.58579 19.4142C2.21071 19.0391 2 18.5304 2 18V4.99997C2 4.46954 2.21071 3.96083 2.58579 3.58576C2.96086 3.21069 3.46957 2.99997 4 2.99997H7.9C8.23449 2.99669 8.56445 3.07736 8.8597 3.23459C9.15495 3.39183 9.40604 3.6206 9.59 3.89997L10.4 5.09997C10.5821 5.3765 10.83 5.60349 11.1215 5.76058C11.413 5.91766 11.7389 5.99992 12.07 5.99997H20C20.5304 5.99997 21.0391 6.21069 21.4142 6.58576C21.7893 6.96083 22 7.46954 22 7.99997V8.49997M12 9.99997V14M12 14H16M12 14L13.535 12.395C14.109 11.8433 14.8065 11.4366 15.5694 11.2089C16.3323 10.9811 17.1386 10.9389 17.9211 11.0856C18.7037 11.2323 19.4399 11.5638 20.0684 12.0525C20.697 12.5411 21.1998 13.1728 21.535 13.895M22 22V18M22 18H18M22 18L20.465 19.605C19.891 20.1567 19.1935 20.5633 18.4306 20.7911C17.6677 21.0188 16.8614 21.0611 16.0789 20.9143C15.2963 20.7676 14.5601 20.4361 13.9316 19.9475C13.303 19.4588 12.8002 18.8272 12.465 18.105" stroke="black" stroke-width="2" stroke-linecap="round" stroke-linejoin="round"/>
</svg>
