<svg width="24" height="24" viewBox="0 0 24 24" fill="none" xmlns="http://www.w3.org/2000/svg">
<g clip-path="url(#clip0_5_6272)">
<path d="M16.02 12L21.5 15.13C21.6539 15.2172 21.7819 15.3437 21.871 15.4966C21.96 15.6494 22.007 15.8231 22.007 16C22.007 16.1769 21.96 16.3506 21.871 16.5035C21.7819 16.6563 21.6539 16.7828 21.5 16.87L13 21.74C12.696 21.9155 12.3511 22.008 12 22.008C11.6489 22.008 11.304 21.9155 11 21.74L2.50001 16.87C2.34611 16.7828 2.2181 16.6563 2.12904 16.5035C2.03998 16.3506 1.99306 16.1769 1.99306 16C1.99306 15.8231 2.03998 15.6494 2.12904 15.4966C2.2181 15.3437 2.34611 15.2172 2.50001 15.13L7.98001 12M13 13.74C12.696 13.9156 12.3511 14.008 12 14.008C11.6489 14.008 11.304 13.9156 11 13.74L2.50001 8.87001C2.34611 8.7828 2.2181 8.65632 2.12904 8.50348C2.03998 8.35064 1.99306 8.17691 1.99306 8.00001C1.99306 7.82312 2.03998 7.64939 2.12904 7.49655C2.2181 7.34371 2.34611 7.21723 2.50001 7.13001L11 2.26001C11.304 2.08448 11.6489 1.99207 12 1.99207C12.3511 1.99207 12.696 2.08448 13 2.26001L21.5 7.13001C21.6539 7.21723 21.7819 7.34371 21.871 7.49655C21.96 7.64939 22.007 7.82312 22.007 8.00001C22.007 8.17691 21.96 8.35064 21.871 8.50348C21.7819 8.65632 21.6539 8.7828 21.5 8.87001L13 13.74Z" stroke="black" stroke-width="2" stroke-linecap="round" stroke-linejoin="round"/>
</g>
<defs>
<clipPath id="clip0_5_6272">
<rect width="24" height="24" fill="white"/>
</clipPath>
</defs>
</svg>
