<svg width="24" height="24" viewBox="0 0 24 24" fill="none" xmlns="http://www.w3.org/2000/svg">
<path d="M2 22C3.25 21.013 4.27 20.025 5.9 19.8C7.31112 19.7996 8.66958 20.3359 9.7 21.3C10.2347 21.6746 10.8531 21.9126 11.5009 21.9932C12.1488 22.0739 12.8066 21.9947 13.4169 21.7626C14.0271 21.5305 14.5713 21.1526 15.0019 20.6618C15.4324 20.171 15.7363 19.5822 15.887 18.947C16.5358 19.0626 17.2041 18.9928 17.815 18.7454C18.4258 18.4981 18.9544 18.0833 19.34 17.5487C19.7255 17.0142 19.9523 16.3817 19.9942 15.724C20.0361 15.0663 19.8915 14.4101 19.577 13.831C20.1503 13.6458 20.666 13.3157 21.0743 12.8728C21.4827 12.4299 21.7698 11.8891 21.9078 11.3027C22.0459 10.7163 22.0303 10.1042 21.8625 9.52558C21.6947 8.94699 21.3804 8.42151 20.95 7.99998C21.275 7.67496 21.5328 7.2891 21.7087 6.86444C21.8846 6.43978 21.9752 5.98463 21.9752 5.52498C21.9752 5.06533 21.8846 4.61018 21.7087 4.18552C21.5328 3.76086 21.275 3.375 20.95 3.04998C20.625 2.72496 20.2391 2.46714 19.8145 2.29124C19.3898 2.11533 18.9347 2.0248 18.475 2.0248C17.5467 2.0248 16.6564 2.39357 16 3.04998C15.5785 2.61959 15.053 2.30528 14.4744 2.13748C13.8958 1.96968 13.2837 1.95406 12.6973 2.09213C12.1109 2.23021 11.5701 2.5173 11.1272 2.92564C10.6842 3.33397 10.3542 3.84972 10.169 4.42298C9.58985 4.10846 8.93367 3.96385 8.27596 4.00578C7.61825 4.04772 6.98575 4.2745 6.45124 4.66003C5.91672 5.04555 5.50192 5.57416 5.25456 6.18502C5.0072 6.79588 4.93733 7.46417 5.053 8.11298C4.42326 8.26634 3.84022 8.57044 3.35406 8.99909C2.8679 9.42774 2.49319 9.96811 2.26217 10.5737C2.03115 11.1793 1.95076 11.8319 2.0279 12.4755C2.10504 13.119 2.33741 13.7342 2.705 14.268C3.499 15.42 4.409 16.712 4.2 18.1C3.926 19.743 3.014 20.732 2 22ZM2 22L17 6.99998" stroke="black" stroke-width="2" stroke-linecap="round" stroke-linejoin="round"/>
</svg>
