<svg width="24" height="24" viewBox="0 0 24 24" fill="none" xmlns="http://www.w3.org/2000/svg">
<path d="M12.75 7.08998C13.2705 7.22357 13.7455 7.49451 14.1255 7.87448C14.5055 8.25445 14.7764 8.7295 14.91 9.24998M17.072 17.072C15.438 19.242 13.545 20.984 12.601 21.799C12.4277 21.9293 12.2168 21.9997 12 21.9997C11.7832 21.9997 11.5723 21.9293 11.399 21.799C9.539 20.193 4 14.993 4 9.99998C3.99988 8.36684 4.4996 6.77279 5.432 5.43198M2 1.99998L22 22M8.475 2.81798C9.6947 2.2193 11.0468 1.94113 12.4038 2.00971C13.7607 2.07828 15.0779 2.49134 16.231 3.20994C17.3842 3.92853 18.3353 4.92898 18.9947 6.11696C19.6541 7.30493 20.0001 8.64127 20 9.99998C20 11.183 19.69 12.377 19.19 13.533M9.13 9.12998C8.97286 9.64958 8.95964 10.2021 9.09176 10.7286C9.22388 11.2551 9.49638 11.7359 9.88023 12.1198C10.2641 12.5036 10.7449 12.7761 11.2714 12.9082C11.7979 13.0403 12.3504 13.0271 12.87 12.87" stroke="black" stroke-width="2" stroke-linecap="round" stroke-linejoin="round"/>
</svg>
