<svg width="24" height="24" viewBox="0 0 24 24" fill="none" xmlns="http://www.w3.org/2000/svg">
<path d="M15.8 9.20005C15.3327 8.74198 14.7044 8.4854 14.05 8.4854C13.3956 8.4854 12.7673 8.74198 12.3 9.20005L12 9.60005L11.65 9.30005C11.4207 9.05191 11.1421 8.85452 10.8319 8.72059C10.5218 8.58665 10.1871 8.51913 9.84925 8.52238C9.51144 8.52563 9.17805 8.59957 8.87054 8.73944C8.56303 8.87931 8.28821 9.08201 8.06377 9.33451C7.83933 9.587 7.67024 9.88369 7.56739 10.2055C7.46453 10.5273 7.43019 10.867 7.46657 11.2029C7.50296 11.5387 7.60925 11.8633 7.77863 12.1556C7.948 12.4479 8.1767 12.7015 8.45 12.9L12.05 16.4L15.65 12.9C16.85 11.7 16.75 10.2 15.85 9.20005M7.9 20C9.80858 20.9791 12.0041 21.2443 14.0909 20.7478C16.1777 20.2514 18.0186 19.0259 19.2818 17.2922C20.545 15.5586 21.1474 13.4308 20.9806 11.2922C20.8137 9.15366 19.8886 7.14502 18.3718 5.62824C16.855 4.11146 14.8464 3.1863 12.7078 3.01946C10.5693 2.85263 8.44147 3.45509 6.70782 4.71829C4.97417 5.98149 3.74869 7.82236 3.25222 9.90916C2.75575 11.996 3.02094 14.1915 4 16.1L2 22L7.9 20Z" stroke="black" stroke-width="2" stroke-linecap="round" stroke-linejoin="round"/>
</svg>
