<svg width="24" height="24" viewBox="0 0 24 24" fill="none" xmlns="http://www.w3.org/2000/svg">
<g clip-path="url(#clip0_5_7714)">
<path d="M10.4 21.9C12.3228 22.2159 14.2959 21.9632 16.077 21.1729C17.8581 20.3827 19.3695 19.0893 20.4255 17.4517C21.4815 15.8141 22.0361 13.9037 22.0211 11.9552C22.0061 10.0067 21.4221 8.10507 20.341 6.48396M13.5 2.09996C11.5851 1.80754 9.62649 2.07757 7.86216 2.87726C6.09783 3.67694 4.60374 4.97184 3.56144 6.60461C2.51914 8.23739 1.97349 10.1377 1.99081 12.0748C2.00813 14.0118 2.58767 15.9021 3.659 17.516M15 12C15 13.6568 13.6569 15 12 15C10.3431 15 9 13.6568 9 12C9 10.3431 10.3431 8.99996 12 8.99996C13.6569 8.99996 15 10.3431 15 12ZM21 4.99996C21 6.10453 20.1046 6.99996 19 6.99996C17.8954 6.99996 17 6.10453 17 4.99996C17 3.89539 17.8954 2.99996 19 2.99996C20.1046 2.99996 21 3.89539 21 4.99996ZM7 19C7 20.1045 6.10457 21 5 21C3.89543 21 3 20.1045 3 19C3 17.8954 3.89543 17 5 17C6.10457 17 7 17.8954 7 19Z" stroke="black" stroke-width="2" stroke-linecap="round" stroke-linejoin="round"/>
</g>
<defs>
<clipPath id="clip0_5_7714">
<rect width="24" height="24" fill="white"/>
</clipPath>
</defs>
</svg>
