<svg width="24" height="24" viewBox="0 0 24 24" fill="none" xmlns="http://www.w3.org/2000/svg">
<path d="M12 12V4C12 3.73478 12.1054 3.48043 12.2929 3.29289C12.4804 3.10536 12.7348 3 13 3H19.297C19.5013 3.00002 19.7007 3.0626 19.8683 3.17933C20.036 3.29606 20.1638 3.46133 20.2347 3.65291C20.3056 3.84449 20.3162 4.0532 20.2649 4.25094C20.2136 4.44869 20.1031 4.62599 19.948 4.759L15.252 8.784M12 21L4.586 13.586C4.2109 13.211 4.00011 12.7024 4 12.172V6.415C4.00099 6.21767 4.06022 6.02503 4.17026 5.86124C4.2803 5.69744 4.43626 5.56978 4.61857 5.49427C4.80088 5.41876 5.00142 5.39877 5.19506 5.43679C5.38869 5.47481 5.56678 5.56916 5.707 5.708L20 20.009M12.214 3.381L20.628 18.347C20.7351 18.5376 20.7767 18.7581 20.7465 18.9746C20.7164 19.1912 20.6161 19.3919 20.461 19.546L19.293 20.709C19.1054 20.8956 18.8516 21.0002 18.587 21H6.351C6.12384 21.0001 5.90341 20.9229 5.726 20.781L3.25 18.8C3.08771 18.6702 2.96988 18.4931 2.91287 18.2933C2.85587 18.0935 2.86252 17.8809 2.93192 17.685C3.00131 17.4892 3.12999 17.3198 3.30008 17.2004C3.47017 17.0811 3.67321 17.0176 3.881 17.019L8.046 17.046" stroke="black" stroke-width="2" stroke-linecap="round" stroke-linejoin="round"/>
</svg>
