<svg width="24" height="24" viewBox="0 0 24 24" fill="none" xmlns="http://www.w3.org/2000/svg">
<path d="M3 9.00005H21M3 9.00005V19C3 19.5305 3.21071 20.0392 3.58579 20.4143C3.96086 20.7893 4.46957 21 5 21H19C19.5304 21 20.0391 20.7893 20.4142 20.4143C20.7893 20.0392 21 19.5305 21 19V9.00005M3 9.00005L5.45 4.10005C5.61696 3.7687 5.87281 3.49034 6.18893 3.29607C6.50504 3.10181 6.86897 2.99932 7.24 3.00005H16.76C17.1327 2.99745 17.4988 3.09907 17.8168 3.29344C18.1349 3.4878 18.3923 3.76718 18.56 4.10005L21 9.00005M12 3.00005V9.00005" stroke="black" stroke-width="2" stroke-linecap="round" stroke-linejoin="round"/>
</svg>
