<svg width="24" height="24" viewBox="0 0 24 24" fill="none" xmlns="http://www.w3.org/2000/svg">
<path d="M21.44 11.05L12.25 20.24C11.1242 21.3659 9.59718 21.9984 8.005 21.9984C6.41282 21.9984 4.88584 21.3659 3.76 20.24C2.63416 19.1142 2.00166 17.5872 2.00166 15.995C2.00166 14.4029 2.63416 12.8759 3.76 11.75L12.33 3.18003C13.0806 2.42815 14.0991 2.00521 15.1615 2.00427C16.2239 2.00334 17.2431 2.42447 17.995 3.17503C18.7469 3.9256 19.1698 4.9441 19.1708 6.0065C19.1717 7.06889 18.7506 8.08815 18 8.84003L9.41 17.41C9.03472 17.7853 8.52573 17.9961 7.995 17.9961C7.46427 17.9961 6.95528 17.7853 6.58 17.41C6.20472 17.0348 5.99389 16.5258 5.99389 15.995C5.99389 15.4643 6.20472 14.9553 6.58 14.58L15.07 6.10003" stroke="black" stroke-width="2" stroke-linecap="round" stroke-linejoin="round"/>
</svg>
