<svg width="24" height="24" viewBox="0 0 24 24" fill="none" xmlns="http://www.w3.org/2000/svg">
<path d="M9 8.99995C9 8.2043 9.31607 7.44123 9.87868 6.87862C10.4413 6.31602 11.2044 5.99995 12 5.99995C12.7957 5.99995 13.5587 6.31602 14.1213 6.87862C14.6839 7.44123 15 8.2043 15 8.99995M12 11.9999V14.9999M11 14.9999H13M12 18.9999V21.9999M19 8.99995C19.0047 7.97921 18.7861 6.9698 18.3595 6.04246C17.9329 5.11512 17.3087 4.29229 16.5306 3.63164C15.7525 2.971 14.8393 2.48852 13.855 2.21803C12.8708 1.94753 11.8393 1.89557 10.8328 2.06578C9.82637 2.23599 8.86932 2.62425 8.02875 3.20335C7.18817 3.78246 6.48442 4.53839 5.96681 5.41817C5.44921 6.29794 5.13027 7.28028 5.03236 8.29632C4.93444 9.31236 5.05992 10.3375 5.4 11.2999C6.4 14.3999 8 18.9999 8 18.9999H16C16 18.9999 17.6 14.3999 18.6 11.2999C18.9 10.4999 19 9.79995 19 8.99995Z" stroke="black" stroke-width="2" stroke-linecap="round" stroke-linejoin="round"/>
</svg>
