<svg width="24" height="24" viewBox="0 0 24 24" fill="none" xmlns="http://www.w3.org/2000/svg">
<path d="M2 14H22M6 14V18M10 14V18M14 14V18M18 14V18M18.5 7.99996C17.1 7.99996 15.9 7.19996 15.3 5.99996C14.732 4.4246 13.6081 3.11097 12.1396 2.30599C10.6712 1.501 8.95922 1.26011 7.32563 1.62859C5.69204 1.99707 4.24929 2.94954 3.26858 4.30697C2.28787 5.6644 1.83674 7.3333 2 8.99996V20C2 20.5304 2.21071 21.0391 2.58579 21.4142C2.96086 21.7892 3.46957 22 4 22H20C20.5304 22 21.0391 21.7892 21.4142 21.4142C21.7893 21.0391 22 20.5304 22 20V11.5C22 9.59996 20.4 7.99996 18.5 7.99996Z" stroke="black" stroke-width="2" stroke-linecap="round" stroke-linejoin="round"/>
</svg>
