<svg width="24" height="24" viewBox="0 0 24 24" fill="none" xmlns="http://www.w3.org/2000/svg">
<path d="M16.85 18.58C18.4894 17.5313 19.7447 15.9794 20.4276 14.157C21.1106 12.3346 21.1844 10.3399 20.6381 8.47205C20.0917 6.60416 18.9546 4.96369 17.3972 3.79659C15.8399 2.6295 13.9462 1.99866 12 1.99866C10.0538 1.99866 8.16012 2.6295 6.60275 3.79659C5.04538 4.96369 3.90828 6.60416 3.36193 8.47205C2.81558 10.3399 2.88942 12.3346 3.57237 14.157C4.25533 15.9794 5.51061 17.5313 7.15 18.58M8 14C7.44287 13.2572 7.10359 12.3739 7.0202 11.4491C6.93681 10.5243 7.1126 9.59451 7.52786 8.76398C7.94313 7.93345 8.58147 7.23497 9.37135 6.74679C10.1612 6.25862 11.0714 6.00005 12 6.00005C12.9286 6.00005 13.8388 6.25862 14.6287 6.74679C15.4185 7.23497 16.0569 7.93345 16.4721 8.76398C16.8874 9.59451 17.0632 10.5243 16.9798 11.4491C16.8964 12.3739 16.5571 13.2572 16 14M13 11C13 11.5523 12.5523 12 12 12C11.4477 12 11 11.5523 11 11C11 10.4478 11.4477 10 12 10C12.5523 10 13 10.4478 13 11ZM13 17C13 16.7348 12.8946 16.4805 12.7071 16.2929C12.5196 16.1054 12.2652 16 12 16C11.7348 16 11.4804 16.1054 11.2929 16.2929C11.1054 16.4805 11 16.7348 11 17L11.5 21.5C11.5 21.6327 11.5527 21.7598 11.6464 21.8536C11.7402 21.9474 11.8674 22 12 22C12.1326 22 12.2598 21.9474 12.3536 21.8536C12.4473 21.7598 12.5 21.6327 12.5 21.5L13 17Z" stroke="black" stroke-width="2" stroke-linecap="round" stroke-linejoin="round"/>
</svg>
