<svg width="24" height="24" viewBox="0 0 24 24" fill="none" xmlns="http://www.w3.org/2000/svg">
<g clip-path="url(#clip0_5_8440)">
<path d="M19.439 7.85005C19.39 8.17205 19.498 8.49805 19.728 8.72805L21.296 10.296C21.766 10.766 22.002 11.383 22.002 12C22.002 12.617 21.767 13.233 21.296 13.704L19.685 15.315C19.5767 15.4232 19.4446 15.5045 19.2993 15.5524C19.1539 15.6004 18.9994 15.6136 18.848 15.591C18.378 15.521 18.046 15.111 17.88 14.666C17.7343 14.2728 17.4922 13.9226 17.1757 13.6474C16.8593 13.3723 16.4787 13.1811 16.0691 13.0915C15.6595 13.0019 15.2339 13.0168 14.8315 13.1347C14.4291 13.2526 14.0628 13.4698 13.7662 13.7663C13.4697 14.0628 13.2525 14.4291 13.1346 14.8315C13.0167 15.2339 13.0019 15.6595 13.0915 16.0692C13.1811 16.4788 13.3722 16.8593 13.6474 17.1758C13.9225 17.4922 14.2728 17.7344 14.666 17.88C15.112 18.046 15.521 18.377 15.591 18.848C15.6136 18.9994 15.6004 19.154 15.5525 19.2994C15.5046 19.4447 15.4232 19.5768 15.315 19.685L13.705 21.295C13.4814 21.5194 13.2157 21.6974 12.9231 21.8187C12.6305 21.94 12.3168 22.0023 12 22.0021C11.6835 22.0025 11.37 21.9403 11.0775 21.8191C10.7851 21.698 10.5195 21.5202 10.296 21.296L8.728 19.7281C8.61467 19.6145 8.47629 19.5291 8.32398 19.4788C8.17167 19.4284 8.00968 19.4145 7.851 19.438C7.358 19.512 7.011 19.942 6.831 20.406C6.68013 20.7933 6.43509 21.1368 6.11805 21.4056C5.80101 21.6743 5.42197 21.8598 5.01523 21.9452C4.60848 22.0306 4.18687 22.0132 3.78852 21.8947C3.39017 21.7761 3.02766 21.5602 2.73378 21.2663C2.4399 20.9724 2.22392 20.6099 2.10538 20.2115C1.98685 19.8132 1.96949 19.3916 2.05489 18.9848C2.14028 18.5781 2.32574 18.199 2.59447 17.882C2.86321 17.565 3.20674 17.3199 3.594 17.169C4.058 16.989 4.488 16.642 4.561 16.149C4.58472 15.9905 4.57093 15.8285 4.52074 15.6762C4.47055 15.5239 4.38536 15.3855 4.272 15.272L2.704 13.704C2.47985 13.4805 2.30208 13.2149 2.18092 12.9225C2.05976 12.6301 1.9976 12.3166 1.998 12C1.998 11.383 2.234 10.766 2.704 10.296L4.23 8.77005C4.47 8.53005 4.811 8.41705 5.147 8.46705C5.662 8.54405 6.024 8.99505 6.22 9.47705C6.3757 9.8588 6.62339 10.1961 6.94101 10.459C7.25864 10.7218 7.63634 10.902 8.04048 10.9835C8.44461 11.0651 8.86264 11.0454 9.25733 10.9263C9.65201 10.8071 10.0111 10.5922 10.3026 10.3007C10.5942 10.0092 10.8091 9.65006 10.9282 9.25537C11.0473 8.86069 11.067 8.44266 10.9855 8.03852C10.904 7.63439 10.7238 7.25669 10.4609 6.93906C10.1981 6.62144 9.86075 6.37375 9.479 6.21805C8.997 6.02205 8.546 5.66005 8.469 5.14505C8.419 4.80905 8.531 4.46905 8.772 4.22805L10.297 2.70305C10.5205 2.4792 10.7859 2.30168 11.0782 2.1807C11.3704 2.05972 11.6837 1.99765 12 1.99805C12.617 1.99805 13.234 2.23405 13.704 2.70405L15.272 4.27205C15.502 4.50205 15.828 4.61005 16.149 4.56205C16.642 4.48805 16.989 4.05805 17.169 3.59405C17.3199 3.20679 17.5649 2.86325 17.882 2.59452C18.199 2.32579 18.578 2.14033 18.9848 2.05494C19.3915 1.96954 19.8131 1.98689 20.2115 2.10543C20.6098 2.22397 20.9723 2.43995 21.2662 2.73383C21.5601 3.02771 21.7761 3.39022 21.8946 3.78857C22.0132 4.18692 22.0305 4.60853 21.9451 5.01528C21.8597 5.42202 21.6743 5.80105 21.4055 6.11809C21.1368 6.43513 20.7933 6.68017 20.406 6.83105C19.942 7.01105 19.512 7.35705 19.439 7.85005Z" stroke="black" stroke-width="2" stroke-linecap="round" stroke-linejoin="round"/>
</g>
<defs>
<clipPath id="clip0_5_8440">
<rect width="24" height="24" fill="white"/>
</clipPath>
</defs>
</svg>
