<svg width="24" height="24" viewBox="0 0 24 24" fill="none" xmlns="http://www.w3.org/2000/svg">
<path d="M6.99 3.34005C8.89744 2.23728 11.1157 1.79532 13.3001 2.08284C15.4846 2.37036 17.5129 3.37126 19.07 4.93005L13.41 10.59M4 6.00005H4.01M2.29 9.62005C1.91509 11.1471 1.90558 12.7411 2.26223 14.2725C2.61887 15.8039 3.33163 17.2297 4.34263 18.434C5.35364 19.6383 6.63438 20.5872 8.0809 21.2037C9.52741 21.8202 11.0989 22.0869 12.6678 21.9821C14.2368 21.8773 15.7589 21.4041 17.1106 20.6007C18.4623 19.7974 19.6055 18.6866 20.4474 17.3586C21.2893 16.0306 21.8062 14.5227 21.9561 12.9575C22.1059 11.3922 21.8846 9.81371 21.31 8.35005M16.24 7.76005C15.6645 7.18121 14.977 6.72588 14.2194 6.42192C13.4619 6.11796 12.6503 5.97175 11.8344 5.99225C11.0184 6.01276 10.2152 6.19953 9.47387 6.54115C8.73256 6.88277 8.06875 7.37206 7.52306 7.97906C6.97737 8.58607 6.56127 9.29804 6.30021 10.0714C6.03916 10.8448 5.93864 11.6633 6.00482 12.4768C6.07099 13.2904 6.30247 14.0818 6.68507 14.8028C7.06768 15.5239 7.59338 16.1592 8.23 16.67M12 18H12.01M17.99 11.66C18.0444 12.6114 17.8714 13.5621 17.4854 14.4333C17.0993 15.3045 16.5113 16.0713 15.77 16.67M14 12C14 13.1046 13.1046 14 12 14C10.8954 14 10 13.1046 10 12C10 10.8955 10.8954 10 12 10C13.1046 10 14 10.8955 14 12Z" stroke="black" stroke-width="2" stroke-linecap="round" stroke-linejoin="round"/>
</svg>
