<svg width="24" height="24" viewBox="0 0 24 24" fill="none" xmlns="http://www.w3.org/2000/svg">
<path d="M6.01 17.9999H6M10.01 17.9999H10M15 9.99995V13.9999M17.84 7.16995C17.4685 6.79804 17.0274 6.50301 16.5418 6.30171C16.0562 6.10041 15.5357 5.9968 15.01 5.9968C14.4843 5.9968 13.9638 6.10041 13.4782 6.30171C12.9926 6.50301 12.5515 6.79804 12.18 7.16995M20.66 4.33995C19.1599 2.84079 17.1258 1.99866 15.005 1.99866C12.8842 1.99866 10.8501 2.84079 9.35 4.33995M4 13.9999H20C21.1046 13.9999 22 14.8954 22 15.9999V20C22 21.1045 21.1046 22 20 22H4C2.89543 22 2 21.1045 2 20V15.9999C2 14.8954 2.89543 13.9999 4 13.9999Z" stroke="black" stroke-width="2" stroke-linecap="round" stroke-linejoin="round"/>
</svg>
