<svg width="24" height="24" viewBox="0 0 24 24" fill="none" xmlns="http://www.w3.org/2000/svg">
<path d="M3 11.0001V14.0001C3 14.2653 3.10536 14.5196 3.29289 14.7072C3.48043 14.8947 3.73478 15.0001 4 15.0001M3 11.0001L10.77 4.96006C11.1214 4.68597 11.5543 4.53711 12 4.53711C12.4457 4.53711 12.8786 4.68597 13.23 4.96006L21 11.0001M3 11.0001H21M4 15.0001H20M4 15.0001C3.73478 15.0001 3.48043 15.1054 3.29289 15.2929C3.10536 15.4805 3 15.7348 3 16.0001V18.0001C3 18.2653 3.10536 18.5196 3.29289 18.7072C3.48043 18.8947 3.73478 19.0001 4 19.0001H12M20 15.0001C20.2652 15.0001 20.5196 14.8947 20.7071 14.7072C20.8946 14.5196 21 14.2653 21 14.0001V11.0001M20 15.0001C20.2652 15.0001 20.5196 15.1054 20.7071 15.2929C20.8946 15.4805 21 15.7348 21 16.0001V18.0001C21 18.2653 20.8946 18.5196 20.7071 18.7072C20.5196 18.8947 20.2652 19.0001 20 19.0001H16.17M12.97 19.7701L7 15.0001H19.5L15.75 19.5001C15.4134 19.8988 14.9343 20.1503 14.4149 20.2007C13.8956 20.2512 13.377 20.0966 12.97 19.7701Z" stroke="black" stroke-width="2" stroke-linecap="round" stroke-linejoin="round"/>
</svg>
