<svg width="24" height="24" viewBox="0 0 24 24" fill="none" xmlns="http://www.w3.org/2000/svg">
<path d="M8.3 10.0001C8.17109 10.0071 8.04274 9.97833 7.92916 9.91697C7.81557 9.85561 7.72116 9.76404 7.65637 9.65237C7.59159 9.5407 7.55894 9.41329 7.56205 9.28422C7.56517 9.15516 7.60391 9.02947 7.674 8.92105L11.4 3.00005C11.4585 2.89462 11.5433 2.8061 11.6462 2.74308C11.749 2.68006 11.8663 2.64467 11.9869 2.64034C12.1074 2.63602 12.227 2.6629 12.334 2.71839C12.4411 2.77388 12.532 2.85609 12.598 2.95705L16.3 8.90005C16.373 9.00484 16.4159 9.1276 16.4241 9.25503C16.4323 9.38246 16.4055 9.50971 16.3466 9.623C16.2877 9.73629 16.1989 9.83131 16.0899 9.89777C15.9808 9.96423 15.8557 9.9996 15.728 10.0001H8.3Z" stroke="black" stroke-width="2" stroke-linecap="round" stroke-linejoin="round"/>
<path d="M9 14H4C3.44772 14 3 14.4478 3 15V20C3 20.5523 3.44772 21 4 21H9C9.55228 21 10 20.5523 10 20V15C10 14.4478 9.55228 14 9 14Z" stroke="black" stroke-width="2" stroke-linecap="round" stroke-linejoin="round"/>
<path d="M17.5 21C19.433 21 21 19.433 21 17.5C21 15.5671 19.433 14 17.5 14C15.567 14 14 15.5671 14 17.5C14 19.433 15.567 21 17.5 21Z" stroke="black" stroke-width="2" stroke-linecap="round" stroke-linejoin="round"/>
</svg>
