<svg width="24" height="24" viewBox="0 0 24 24" fill="none" xmlns="http://www.w3.org/2000/svg">
<path d="M2 1.99996L22 22M5 4.99996C4.73478 4.99996 4.48043 5.10532 4.29289 5.29285C4.10536 5.48039 4 5.73474 4 5.99996V13C4 18 7.5 20.5 11.67 21.94C11.8855 22.0202 12.1222 22.0238 12.34 21.95C14.69 21.13 16.82 19.98 18.24 18.24M9.309 3.65196C9.99547 3.25807 10.6422 2.79859 11.24 2.27996C11.4519 2.09896 11.7214 1.99951 12 1.99951C12.2786 1.99951 12.5481 2.09896 12.76 2.27996C14.51 3.80996 17 4.99996 19 4.99996C19.2652 4.99996 19.5196 5.10532 19.7071 5.29285C19.8946 5.48039 20 5.73474 20 5.99996V13C20.0007 13.4226 19.9739 13.8448 19.92 14.264" stroke="black" stroke-width="2" stroke-linecap="round" stroke-linejoin="round"/>
</svg>
