<svg width="24" height="24" viewBox="0 0 24 24" fill="none" xmlns="http://www.w3.org/2000/svg">
<path d="M12 9.99988V11.9999L13 12.9999M16.13 7.65988L15.32 3.60988C15.2286 3.14948 14.9781 2.73592 14.6125 2.44158C14.2468 2.14724 13.7893 1.99089 13.32 1.99988H10.64C10.1707 1.99089 9.71318 2.14724 9.34755 2.44158C8.98191 2.73592 8.73144 3.14948 8.64 3.60988L7.86 7.65988M7.88 16.3599L8.68 20.3599C8.77144 20.8203 9.02191 21.2338 9.38755 21.5282C9.75318 21.8225 10.2107 21.9789 10.68 21.9699H13.4C13.8693 21.9789 14.3268 21.8225 14.6925 21.5282C15.0581 21.2338 15.3086 20.8203 15.4 20.3599L16.21 16.3099M18 11.9999C18 15.3136 15.3137 17.9999 12 17.9999C8.68629 17.9999 6 15.3136 6 11.9999C6 8.68617 8.68629 5.99988 12 5.99988C15.3137 5.99988 18 8.68617 18 11.9999Z" stroke="black" stroke-width="2" stroke-linecap="round" stroke-linejoin="round"/>
</svg>
