<svg width="24" height="24" viewBox="0 0 24 24" fill="none" xmlns="http://www.w3.org/2000/svg">
<path d="M18 16.9799H12.01C10.91 16.9799 10.06 17.9199 9.53 18.8799C9.11045 19.6672 8.43979 20.2916 7.62462 20.6539C6.80945 21.0162 5.89656 21.0956 5.03107 20.8796C4.16558 20.6635 3.39715 20.1643 2.84795 19.4613C2.29874 18.7584 2.00028 17.892 2 16.9999C2.01 16.2999 2.2 15.5999 2.57 14.9999M6 16.9999L9.13 11.2199C9.66 10.2499 9.23 9.03994 8.63 8.11994C8.34681 7.66704 8.15721 7.16201 8.07236 6.63465C7.98751 6.10728 8.00915 5.56827 8.13599 5.0494C8.26283 4.53054 8.49231 4.04233 8.81088 3.61359C9.12946 3.18484 9.53068 2.82425 9.99087 2.55307C10.4511 2.2819 10.9609 2.10565 11.4903 2.0347C12.0197 1.96376 12.558 1.99957 13.0733 2.14002C13.5887 2.28047 14.0707 2.52271 14.4909 2.85246C14.9111 3.1822 15.261 3.59277 15.52 4.05994M12 5.99994L15.13 11.7299C15.66 12.6999 16.9 12.9999 18 12.9999C19.0609 12.9999 20.0783 13.4214 20.8284 14.1715C21.5786 14.9217 22 15.9391 22 16.9999C22 18.0608 21.5786 19.0782 20.8284 19.8284C20.0783 20.5785 19.0609 20.9999 18 20.9999" stroke="black" stroke-width="2" stroke-linecap="round" stroke-linejoin="round"/>
</svg>
