<svg width="24" height="24" viewBox="0 0 24 24" fill="none" xmlns="http://www.w3.org/2000/svg">
<path d="M19 11.9999L17.5 14.9999M19.63 18.8099L22 19.9999M6.47002 8.22993C6.76066 8.06575 7.0936 7.99188 7.4264 8.01773C7.75919 8.04357 8.07674 8.16797 8.33853 8.37505C8.60033 8.58213 8.79451 8.8625 8.89629 9.18039C8.99808 9.49829 9.00286 9.8393 8.91002 10.1599L8.27002 12.2399C7.85402 13.5701 7.8593 14.9963 8.28514 16.3233C8.71098 17.6503 9.53656 18.8133 10.6489 19.653C11.7612 20.4927 13.1058 20.9681 14.4987 21.0141C15.8917 21.0601 17.2647 20.6744 18.43 19.9099L18.85 19.6399C19.1265 19.4607 19.3649 19.2287 19.5517 18.9573C19.7385 18.6859 19.87 18.3804 19.9387 18.0582C20.0074 17.736 20.012 17.4034 19.9522 17.0794C19.8923 16.7554 19.7693 16.4464 19.59 16.1699C19.4108 15.8935 19.1788 15.6551 18.9074 15.4683C18.636 15.2815 18.3305 15.15 18.0083 15.0813C17.6861 15.0126 17.3535 15.008 17.0295 15.0678C16.7055 15.1276 16.3965 15.2507 16.12 15.4299L15.7 15.6999C15.3972 15.8923 15.0428 15.9876 14.6843 15.9729C14.3258 15.9583 13.9803 15.8344 13.6942 15.6179C13.4081 15.4014 13.195 15.1027 13.0834 14.7616C12.9718 14.4206 12.9672 14.0537 13.07 13.7099L13.71 11.6299C14.1196 10.341 14.127 8.95796 13.7313 7.66472C13.3357 6.37148 12.5557 5.22933 11.4951 4.39019C10.4345 3.55105 9.14358 3.05468 7.79401 2.96711C6.44443 2.87953 5.10018 3.20489 3.94002 3.89993L3.24002 4.29993C2.95506 4.46736 2.70586 4.68929 2.50665 4.95303C2.30745 5.21677 2.16215 5.51717 2.07904 5.83707C1.9112 6.48313 2.00687 7.16941 2.34502 7.74493C2.68318 8.32045 3.2361 8.73806 3.88216 8.90591C4.52823 9.07375 5.2145 8.97808 5.79002 8.63993L6.47002 8.22993Z" stroke="black" stroke-width="2" stroke-linecap="round" stroke-linejoin="round"/>
</svg>
