<svg width="24" height="24" viewBox="0 0 24 24" fill="none" xmlns="http://www.w3.org/2000/svg">
<path d="M10.513 4.85592L13.12 2.16992C13.1943 2.0842 13.2955 2.02628 13.407 2.00565C13.5185 1.98503 13.6337 2.00293 13.7337 2.05642C13.8337 2.10991 13.9126 2.19582 13.9573 2.30003C14.0021 2.40424 14.0101 2.52057 13.98 2.62992L12.603 6.94692M15.656 9.99992H20C20.1892 9.99927 20.3748 10.0523 20.535 10.1529C20.6953 10.2535 20.8238 10.3976 20.9055 10.5683C20.9871 10.739 21.0187 10.9293 20.9965 11.1173C20.9743 11.3052 20.8992 11.483 20.78 11.6299L19.06 13.4029M16.273 16.2729L10.88 21.8299C10.8057 21.9156 10.7045 21.9736 10.593 21.9942C10.4815 22.0148 10.3663 21.9969 10.2663 21.9434C10.1663 21.8899 10.0874 21.804 10.0427 21.6998C9.99791 21.5956 9.98992 21.4793 10.02 21.3699L11.94 15.3499C11.9966 15.1984 12.0156 15.0354 11.9954 14.8749C11.9752 14.7144 11.9163 14.5612 11.8239 14.4285C11.7315 14.2957 11.6082 14.1874 11.4647 14.1128C11.3212 14.0381 11.1618 13.9994 11 13.9999H4C3.81077 14.0006 3.62523 13.9475 3.46495 13.8469C3.30468 13.7463 3.17623 13.6023 3.09455 13.4316C3.01287 13.2609 2.98129 13.0705 3.0035 12.8826C3.02571 12.6946 3.10078 12.5169 3.22 12.3699L7.727 7.72692M2 1.99992L22 21.9999" stroke="black" stroke-width="2" stroke-linecap="round" stroke-linejoin="round"/>
</svg>
